<?xml version="1.0" encoding="UTF-8"?>
<svg xmlns="http://www.w3.org/2000/svg" xmlns:xlink="http://www.w3.org/1999/xlink" width="267px" height="150px" viewBox="0 0 960 540" version="1.1">
<defs>
<filter id="alpha" filterUnits="objectBoundingBox" x="0%" y="0%" width="100%" height="100%">
  <feColorMatrix type="matrix" in="SourceGraphic" values="0 0 0 0 1 0 0 0 0 1 0 0 0 0 1 0 0 0 1 0"/>
</filter>
<mask id="mask0">
  <g filter="url(#alpha)">
<rect x="0" y="0" width="960" height="540" style="fill:rgb(0%,0%,0%);fill-opacity:0.101961;stroke:none;"/>
  </g>
</mask>
<clipPath id="clip1">
  <rect x="0" y="0" width="960" height="540"/>
</clipPath>
<g id="surface5" clip-path="url(#clip1)">
<path style=" stroke:none;fill-rule:nonzero;fill:rgb(13.72549%,12.156863%,12.54902%);fill-opacity:1;" d="M 542.148438 288.898438 L 542.148438 384.351562 C 542.148438 387.398438 539.699219 389.851562 536.648438 389.851562 L 445.550781 389.851562 L 445.550781 367.398438 L 437.199219 367.398438 L 437.199219 268.148438 C 437.199219 265.101562 439.648438 262.648438 442.699219 262.648438 L 498.199219 262.648438 L 498.199219 270.550781 L 523.75 270.550781 L 524.25 271.050781 C 530.199219 277 536.199219 282.949219 542.148438 288.898438 Z M 542.148438 288.898438 "/>
</g>
</defs>
<g id="surface1">
<path style=" stroke:none;fill-rule:nonzero;fill:rgb(100%,100%,100%);fill-opacity:1;" d="M 1.5 537.5 L 957.5 537.5 L 957.5 2608.5 L 1.5 2608.5 Z M 1.5 537.5 "/>
<path style=" stroke:none;fill-rule:nonzero;fill:rgb(100%,48.235294%,67.45098%);fill-opacity:1;" d="M 602.5 443.351562 L 349.5 443.351562 C 336 443.351562 325 432.398438 325 418.851562 L 325 165.851562 C 325 152.351562 335.949219 141.351562 349.5 141.351562 L 602.5 141.351562 C 616 141.351562 627 152.300781 627 165.851562 L 627 418.851562 C 627 432.398438 616.050781 443.351562 602.5 443.351562 Z M 602.5 443.351562 "/>
<path style=" stroke:none;fill-rule:nonzero;fill:rgb(100%,100%,100%);fill-opacity:1;" d="M 366.5 171.5 L 356.75 171.5 L 356.75 170.25 L 377.699219 170.25 L 377.699219 171.5 L 367.949219 171.5 L 367.949219 199.300781 L 366.5 199.300781 Z M 366.5 171.5 "/>
<path style=" stroke:none;fill-rule:nonzero;fill:rgb(100%,100%,100%);fill-opacity:1;" d="M 381.800781 194.148438 C 381.800781 189.449219 386.25 187.25 396.101562 186.199219 C 396.199219 182.75 395.300781 179 390.75 179 C 387.648438 179 385 180.5 383.648438 181.550781 L 382.898438 180.5 C 384.25 179.550781 387.25 177.75 390.800781 177.75 C 395.898438 177.75 397.449219 181.449219 397.449219 185.648438 L 397.449219 199.300781 L 396.25 199.300781 L 396.050781 196.5 L 396 196.5 C 393.699219 198.25 391 199.851562 388.101562 199.851562 C 384.699219 199.800781 381.800781 198.148438 381.800781 194.148438 Z M 396.101562 195 L 396.101562 187.351562 C 386.550781 188.398438 383.25 190.5 383.25 194.101562 C 383.25 197.351562 385.550781 198.601562 388.148438 198.601562 C 390.75 198.601562 393.199219 197.351562 396.101562 195 Z M 389.898438 166.898438 L 391.148438 166.898438 L 396.5 173.300781 L 395.699219 174 L 390.601562 168.300781 L 390.398438 168.300781 L 385.300781 174 L 384.5 173.300781 Z M 388.351562 206.050781 C 388.351562 205.148438 389 204.550781 389.800781 204.550781 C 390.601562 204.550781 391.25 205.148438 391.25 206.050781 C 391.25 207 390.601562 207.648438 389.800781 207.648438 C 389 207.648438 388.351562 207.050781 388.351562 206.050781 Z M 388.351562 206.050781 "/>
<path style=" stroke:none;fill-rule:nonzero;fill:rgb(100%,100%,100%);fill-opacity:1;" d="M 405.550781 178.25 L 406.75 178.25 L 406.949219 181 L 407.050781 181 C 409.25 179.351562 411.851562 177.75 414.601562 177.75 C 420.5 177.75 423.351562 181.949219 423.351562 188.5 C 423.351562 195.648438 418.898438 199.851562 413.699219 199.851562 C 411.601562 199.851562 409.351562 198.898438 406.949219 197.199219 L 406.949219 209.050781 L 405.601562 209.050781 Z M 421.851562 188.449219 C 421.851562 183.101562 419.851562 178.949219 414.5 178.949219 C 412.199219 178.949219 409.75 180.25 406.949219 182.648438 L 406.949219 195.648438 C 409.601562 197.75 412.050781 198.550781 413.800781 198.550781 C 418.5 198.601562 421.851562 194.351562 421.851562 188.449219 Z M 421.851562 188.449219 "/>
<path style=" stroke:none;fill-rule:nonzero;fill:rgb(100%,100%,100%);fill-opacity:1;" d="M 439.699219 193.75 L 439.699219 179.5 L 436.25 179.5 L 436.25 178.449219 L 439.699219 178.25 L 439.898438 172.101562 L 441.101562 172.101562 L 441.101562 178.25 L 447.5 178.25 L 447.5 179.5 L 441.050781 179.5 L 441.050781 193.949219 C 441.050781 196.699219 441.699219 198.601562 444.851562 198.601562 C 445.648438 198.601562 446.851562 198.25 447.648438 197.898438 L 448.101562 199.050781 C 446.851562 199.5 445.449219 199.851562 444.75 199.851562 C 440.800781 199.800781 439.699219 197.351562 439.699219 193.75 Z M 439.699219 193.75 "/>
<path style=" stroke:none;fill-rule:nonzero;fill:rgb(100%,100%,100%);fill-opacity:1;" d="M 452.148438 171.398438 C 452.148438 170.449219 452.898438 169.898438 453.699219 169.898438 C 454.5 169.898438 455.25 170.449219 455.25 171.398438 C 455.25 172.300781 454.5 172.898438 453.699219 172.898438 C 452.898438 172.898438 452.148438 172.300781 452.148438 171.398438 Z M 452.949219 178.25 L 454.300781 178.25 L 454.300781 199.300781 L 452.949219 199.300781 Z M 452.949219 178.25 "/>
<path style=" stroke:none;fill-rule:nonzero;fill:rgb(100%,100%,100%);fill-opacity:1;" d="M 463.050781 178.25 L 464.25 178.25 L 464.449219 181.601562 L 464.550781 181.601562 C 466.851562 179.398438 469.101562 177.75 472.101562 177.75 C 476.550781 177.75 478.648438 180.300781 478.648438 185.75 L 478.648438 199.300781 L 477.300781 199.300781 L 477.300781 185.949219 C 477.300781 181.300781 475.75 179 472 179 C 469.25 179 467.25 180.398438 464.449219 183.199219 L 464.449219 199.300781 L 463.101562 199.300781 Z M 463.050781 178.25 "/>
<path style="fill-rule:nonzero;fill:rgb(100%,100%,100%);fill-opacity:1;stroke-width:10;stroke-linecap:butt;stroke-linejoin:miter;stroke:rgb(13.72549%,12.156863%,12.54902%);stroke-opacity:1;stroke-miterlimit:10;" d="M 996.398438 494.5 L 996.398438 720.601562 C 996.398438 728.398438 990 734.796875 982.203125 734.796875 L 800.703125 734.796875 C 792.796875 734.796875 786.5 728.398438 786.5 720.601562 L 786.5 494.5 C 786.5 486.703125 792.898438 480.296875 800.703125 480.296875 L 982.203125 480.296875 C 990 480.296875 996.398438 486.703125 996.398438 494.5 Z M 996.398438 494.5 " transform="matrix(0.5,0,0,0.5,0,0)"/>
<use xlink:href="#surface5" mask="url(#mask0)"/>
<path style="fill-rule:nonzero;fill:rgb(100%,100%,100%);fill-opacity:1;stroke-width:10;stroke-linecap:butt;stroke-linejoin:miter;stroke:rgb(13.72549%,12.156863%,12.54902%);stroke-opacity:1;stroke-miterlimit:10;" d="M 1101 593.601562 L 1101 784.5 C 1101 790.601562 1096.101562 795.5 1090 795.5 L 902.101562 795.5 C 896 795.5 891.101562 790.601562 891.101562 784.5 L 891.101562 552 C 891.101562 545.898438 896 541 902.101562 541 L 1048.5 541 L 1048.601562 541.101562 C 1049.5 542 1050.398438 542.898438 1051.296875 543.796875 L 1051.601562 544.101562 C 1068 560.703125 1084.5 577.203125 1101 593.601562 Z M 1101 593.601562 " transform="matrix(0.5,0,0,0.5,0,0)"/>
<path style="fill-rule:nonzero;fill:rgb(98.823529%,78.039216%,62.745098%);fill-opacity:1;stroke-width:10;stroke-linecap:round;stroke-linejoin:round;stroke:rgb(13.72549%,12.156863%,12.54902%);stroke-opacity:1;stroke-miterlimit:10;" d="M 1048.5 541.101562 L 1048.5 595 L 1101 595 Z M 1048.5 541.101562 " transform="matrix(0.5,0,0,0.5,0,0)"/>
<path style="fill:none;stroke-width:10;stroke-linecap:butt;stroke-linejoin:miter;stroke:rgb(36.470588%,49.803922%,67.058824%);stroke-opacity:1;stroke-miterlimit:10;" d="M 930.601562 620.898438 L 1062.898438 620.898438 " transform="matrix(0.5,0,0,0.5,0,0)"/>
<path style="fill:none;stroke-width:10;stroke-linecap:butt;stroke-linejoin:miter;stroke:rgb(36.470588%,49.803922%,67.058824%);stroke-opacity:1;stroke-miterlimit:10;" d="M 931 653.203125 L 1063.296875 653.203125 " transform="matrix(0.5,0,0,0.5,0,0)"/>
<path style="fill:none;stroke-width:10;stroke-linecap:butt;stroke-linejoin:miter;stroke:rgb(36.470588%,49.803922%,67.058824%);stroke-opacity:1;stroke-miterlimit:10;" d="M 931 684.898438 L 1063.296875 684.898438 " transform="matrix(0.5,0,0,0.5,0,0)"/>
<path style="fill:none;stroke-width:10;stroke-linecap:butt;stroke-linejoin:miter;stroke:rgb(36.470588%,49.803922%,67.058824%);stroke-opacity:1;stroke-miterlimit:10;" d="M 931 711.5 L 1063.296875 711.5 " transform="matrix(0.5,0,0,0.5,0,0)"/>
<path style="fill:none;stroke-width:10;stroke-linecap:butt;stroke-linejoin:miter;stroke:rgb(36.470588%,49.803922%,67.058824%);stroke-opacity:1;stroke-miterlimit:10;" d="M 931 742.398438 L 1063.296875 742.398438 " transform="matrix(0.5,0,0,0.5,0,0)"/>
</g>
</svg>
