<?xml version="1.0" encoding="utf-8"?>
<!-- Generator: Adobe Illustrator 24.1.2, SVG Export Plug-In . SVG Version: 6.00 Build 0)  -->
<svg version="1.1" id="Layer_1" xmlns="http://www.w3.org/2000/svg" xmlns:xlink="http://www.w3.org/1999/xlink" x="0px" y="0px"
	 viewBox="0 0 3543 2480" style="enable-background:new 0 0 3543 2480;" xml:space="preserve">
<style type="text/css">
	.st0{fill:url(#SVGID_1_);}
	.st1{fill:#FFFFFF;}
	.st2{font-family:'iCielBreeSerif-Regular';}
	.st3{font-size:58.2503px;}
	.st4{opacity:0.3;fill:#FF0C56;enable-background:new    ;}
	.st5{opacity:0.2;fill:#FF0C56;enable-background:new    ;}
	.st6{opacity:0.2;fill:#FFFFFF;enable-background:new    ;}
	.st7{fill:#D61E4F;}
	.st8{fill:#FF0C56;}
	.st9{opacity:0.5;fill:url(#SVGID_2_);enable-background:new    ;}
	.st10{fill:url(#SVGID_3_);}
	.st11{fill:#F0F0F0;}
	.st12{fill:#E0E0E0;}
	.st13{fill:#FF4545;}
	.st14{opacity:0.6;}
	.st15{opacity:0.3;enable-background:new    ;}
	.st16{opacity:0.5;enable-background:new    ;}
	.st17{fill:#263238;}
	.st18{opacity:0.7;enable-background:new    ;}
	.st19{opacity:0.4;fill:#FFFFFF;enable-background:new    ;}
	.st20{opacity:0.1;enable-background:new    ;}
	.st21{fill:#FAFAFA;}
	.st22{fill:none;}
	.st23{fill:#E6E6E6;}
	.st24{opacity:0.5;fill:#455A64;enable-background:new    ;}
	.st25{opacity:0.5;}
	.st26{fill:#455A64;}
	.st27{opacity:0.7;fill:#FFFFFF;enable-background:new    ;}
	.st28{fill:#F5F5F5;}
	.st29{fill:#EBEBEB;}
	.st30{opacity:0.2;enable-background:new    ;}
	.st31{fill:#FFA8A7;}
	.st32{fill:#F28F8F;}
	.st33{fill:#B16668;}
	.st34{fill:#37474F;}
	.st35{fill:#9A4A4D;}
	.st36{opacity:0.15;enable-background:new    ;}
	.st37{clip-path:url(#SVGID_5_);fill:none;stroke:#FFFFFF;stroke-width:2;stroke-miterlimit:10;}
	.st38{clip-path:url(#SVGID_7_);fill:none;stroke:#FFFFFF;stroke-width:2;stroke-miterlimit:10;}
	.st39{clip-path:url(#SVGID_9_);fill:none;stroke:#FFFFFF;stroke-width:2;stroke-miterlimit:10;}
	.st40{clip-path:url(#SVGID_11_);fill:none;stroke:#FFFFFF;stroke-width:2;stroke-miterlimit:10;}
	.st41{clip-path:url(#SVGID_13_);fill:none;stroke:#FFFFFF;stroke-width:2;stroke-miterlimit:10;}
	.st42{clip-path:url(#SVGID_15_);fill:none;stroke:#FFFFFF;stroke-width:2;stroke-miterlimit:10;}
	.st43{clip-path:url(#SVGID_17_);fill:none;stroke:#FFFFFF;stroke-width:2;stroke-miterlimit:10;}
	.st44{clip-path:url(#SVGID_19_);fill:none;stroke:#FFFFFF;stroke-width:2;stroke-miterlimit:10;}
	.st45{clip-path:url(#SVGID_21_);fill:none;stroke:#FFFFFF;stroke-width:2;stroke-miterlimit:10;}
	.st46{clip-path:url(#SVGID_23_);fill:none;stroke:#FFFFFF;stroke-width:2;stroke-miterlimit:10;}
	.st47{clip-path:url(#SVGID_25_);fill:none;stroke:#FFFFFF;stroke-width:2;stroke-miterlimit:10;}
	.st48{clip-path:url(#SVGID_27_);fill:none;stroke:#FFFFFF;stroke-width:2;stroke-miterlimit:10;}
	.st49{clip-path:url(#SVGID_29_);fill:none;stroke:#FFFFFF;stroke-width:2;stroke-miterlimit:10;}
	.st50{clip-path:url(#SVGID_31_);fill:none;stroke:#FFFFFF;stroke-width:2;stroke-miterlimit:10;}
	.st51{clip-path:url(#SVGID_33_);fill:none;stroke:#FFFFFF;stroke-width:2;stroke-miterlimit:10;}
	.st52{opacity:0.1;}
	.st53{fill:#FF1D25;}
	.st54{opacity:0.1;fill:#FF1D25;enable-background:new    ;}
</style>
<linearGradient id="SVGID_1_" gradientUnits="userSpaceOnUse" x1="998.6888" y1="1339.696" x2="2624.7888" y2="1339.696" gradientTransform="matrix(1 0 0 -1 0 2482)">
	<stop  offset="0" style="stop-color:#FF6393"/>
	<stop  offset="0.4761" style="stop-color:#FF7BAC"/>
	<stop  offset="1" style="stop-color:#FF2562"/>
</linearGradient>
<path class="st0" d="M2624.8,595.7V1689c0,33.9-27.5,61.4-61.4,61.4H1060.1c-33.9,0-61.4-27.5-61.4-61.4V595.7
	c0-33.9,27.5-61.4,61.4-61.4h1503.3C2597.3,534.3,2624.8,561.8,2624.8,595.7z"/>
<path class="st1" d="M2321.3,1609H1107.6c-6.9,0-12.4-5.6-12.4-12.4V681.9c0-6.9,5.6-12.4,12.4-12.4h1213.7
	c6.9,0,12.4,5.6,12.4,12.4v914.7C2333.7,1603.5,2328.2,1609,2321.3,1609z"/>
<text transform="matrix(1 0 0 1 1313.1584 778.2397)" class="st2 st3">Thông Tin Chung</text>
<path class="st4" d="M1260.6,1701.7c0,16.8-1.9,33.1-5.5,48.7h-195c-33.9,0-61.4-27.5-61.4-61.4v-201c14.1-2.9,28.8-4.4,43.8-4.4
	c18.2,0,35.8,2.2,52.6,6.4l0,0c64.2,15.9,117.2,60.3,144.7,118.9l0,0C1253.1,1637.2,1260.6,1668.6,1260.6,1701.7z"/>
<path class="st5" d="M2624.8,595.7v67.2c-11.2,4.8-23.5,7.4-36.5,7.4c-51.4,0-93-41.6-93-93c0-15.5,3.8-30.2,10.5-43h57.5
	C2597.3,534.3,2624.8,561.8,2624.8,595.7z"/>
<path class="st6" d="M1203.8,534.3c-2.4,30.8-15.5,61-39.1,84.6c-45,45-114,51.5-166,19.5v-42.7c0-33.9,27.5-61.4,61.4-61.4H1203.8z
	"/>
<path class="st7" d="M1197.9,764.9l-59,59l-0.1-0.1l-0.1,0.1l-36.4-36.4c9.4,6.7,15.5,6.9,19.5,5.7c5.3-1.6,8.2-7.6,15.2-14.6
	c2.1-2.1,10.4-7.6,20.9-7.8c7.1-0.1,8.5,2.4,14,2.8c14.5,1,34.3-14.9,35.4-34.7c0.5-9.8-3.6-17.6-6.5-21.9
	C1211.9,731.2,1211,751.8,1197.9,764.9z"/>
<path class="st8" d="M1207.2,735.6c-1.3-4.7-3.5-8.6-5.3-11.2c-0.9-1.1-1.8-2.2-2.8-3.2l0,0c-14.1-14.1-37-14.1-51.1,0l-8,8l-8-8
	c-14.1-14.1-37-14.1-51.1,0l0,0c-7.6,7.6-11.1,17.8-10.5,27.7c-3.4-12.1-0.3-25.7,9.3-35.2l0,0c14.1-14.1,37-14.1,51.1,0l8,8l8-8
	c14.1-14.1,37-14.1,51.1,0l0,0c1,1,1.9,2.1,2.8,3.2C1203.3,720.8,1206.8,727.4,1207.2,735.6z"/>
<path class="st8" d="M1207.2,738.9c-1.1,19.7-20.9,35.7-35.4,34.7c-5.5-0.4-6.9-3-14-2.8c-10.5,0.2-18.8,5.7-20.9,7.8
	c-7,7-9.9,13-15.2,14.6c-3.9,1.2-10,1.1-19.5-5.7l-22.6-22.6c-4.6-4.6-7.7-10.1-9.3-15.9c-0.6-10,2.9-20.1,10.5-27.7l0,0
	c14.1-14.1,37-14.1,51.1,0l8,8l8-8c14.1-14.1,37-14.1,51.1,0l0,0c1,1,1.9,2.1,2.8,3.2c1.7,2.6,3.9,6.4,5.3,11.2
	C1207.3,736.7,1207.3,737.8,1207.2,738.9z"/>
<path class="st8" d="M1207.2,738.9c-1.1,19.7-20.9,35.7-35.4,34.7c-5.5-0.4-6.9-3-14-2.8c-10.5,0.2-18.8,5.7-20.9,7.8
	c-7,7-9.9,13-15.2,14.6c-3.9,1.2-10,1.1-19.5-5.7l98.4-70.5C1203.6,721.3,1207.8,729.1,1207.2,738.9z"/>
<linearGradient id="SVGID_2_" gradientUnits="userSpaceOnUse" x1="1069.0549" y1="1756.0333" x2="1207.1887" y2="1756.0333" gradientTransform="matrix(1 0 0 -1 0 2482)">
	<stop  offset="0" style="stop-color:#FFFFFF"/>
	<stop  offset="0.3801" style="stop-color:#FFD3E1"/>
	<stop  offset="1" style="stop-color:#FFBACF"/>
</linearGradient>
<path class="st9" d="M1207.2,735.6c-1.3-4.7-3.5-8.6-5.3-11.2c-0.9-1.1-1.8-2.2-2.8-3.2l0,0c-14.1-14.1-37-14.1-51.1,0l-8,8l-8-8
	c-14.1-14.1-37-14.1-51.1,0l0,0c-7.6,7.6-11.1,17.8-10.5,27.7c-3.4-12.1-0.3-25.7,9.3-35.2l0,0c14.1-14.1,37-14.1,51.1,0l8,8l8-8
	c14.1-14.1,37-14.1,51.1,0l0,0c1,1,1.9,2.1,2.8,3.2C1203.3,720.8,1206.8,727.4,1207.2,735.6z"/>
<path class="st1" d="M1168.1,766.1c-7.7-1.4-17-2.4-27.4-2.5c-11.5-0.1-21.6,1-29.9,2.5c-6.2,0-11.2-5.1-11.2-11.2
	c0-6.2,5-11.2,11.2-11.2c6.2-2.2,15.7-4.8,27.4-5c13-0.2,23.4,2.7,29.9,5c6.2,0,11.2,5.1,11.2,11.2
	C1179.3,761.1,1174.2,766.1,1168.1,766.1z"/>
<circle class="st7" cx="1164.3" cy="754.9" r="7.5"/>
<circle class="st7" cx="1118.2" cy="754.9" r="7.5"/>
<linearGradient id="SVGID_3_" gradientUnits="userSpaceOnUse" x1="2285.1887" y1="1044.3458" x2="2285.1887" y2="1646.746" gradientTransform="matrix(1 0 0 -1 0 2482)">
	<stop  offset="1.009179e-07" style="stop-color:#FFA1BD"/>
	<stop  offset="1" style="stop-color:#FF7BAC;stop-opacity:0.3"/>
</linearGradient>
<path class="st10" d="M2535.4,1437.7H2035c-6.5,0-11.8-5.3-11.8-11.8V847.1c0-6.5,5.3-11.8,11.8-11.8h500.4
	c6.5,0,11.8,5.3,11.8,11.8v578.7C2547.2,1432.4,2541.9,1437.7,2535.4,1437.7z"/>
<g id="freepik--Floor--inject-2">
	<ellipse id="freepik--floor--inject-2" class="st11" cx="2281.8" cy="1216.1" rx="227.8" ry="131.5"/>
</g>
<g id="freepik--Shadows--inject-2">
	<path id="freepik--Shadow--inject-2" class="st12" d="M2108.8,1262.9l-39.3-22.6c-2.2-1.3-2.2-3.4,0-4.6l228.6-132
		c2.5-1.3,5.5-1.3,8,0l39.3,22.7c2.2,1.3,2.2,3.4,0,4.6l-228.6,132C2114.3,1264.2,2111.4,1264.2,2108.8,1262.9z"/>
	<polygon id="freepik--shadow--inject-2" class="st12" points="2277.7,1272.3 2183.4,1217.8 2301.3,1149.9 2395.6,1204.3 	"/>
	<ellipse id="freepik--shadow--inject-2_1_" class="st12" cx="2408" cy="1270.9" rx="44.6" ry="25.8"/>
	<path id="freepik--shadow--inject-2_2_" class="st12" d="M2467.9,1239.8c4.8,2.8,4.8,7.3,0,10.1s-12.7,2.8-17.5,0s-4.8-7.3,0-10.1
		S2463.1,1237,2467.9,1239.8z"/>
</g>
<g id="freepik--Device--inject-2">
	<g id="freepik--device--inject-2">
		<path class="st13" d="M2250.1,1222.5l33.8-19.5c3.5-2,5.2-4.6,5.2-7.3c0-2.6,0-4.7,0-4.7l-35-19.8c-2-1.3-3.2-3.4-3.4-5.8v-41.7
			l-59,34.1v41.6c0.1,2.4,1.4,4.5,3.4,5.8l29.8,17.2C2231.8,1226.5,2243.1,1226.5,2250.1,1222.5z"/>
		<g class="st14">
			<path d="M2250.1,1222.5l33.8-19.5c3.5-2,5.2-4.6,5.2-7.3c0-2.6,0-4.7,0-4.7l-35-19.8c-2-1.3-3.2-3.4-3.4-5.8v-41.7l-59,34.1v41.6
				c0.1,2.4,1.4,4.5,3.4,5.8l29.8,17.2C2231.8,1226.5,2243.1,1226.5,2250.1,1222.5z"/>
		</g>
		<path class="st15" d="M2205.9,1206.9v4.7l-10.8-6.2c-2-1.3-3.2-3.4-3.4-5.8v-41.7l11.2-6.5c0.2,2.9,0.5,5.8,0.7,8.7l-7.9,4.6v32.5
			c0.1,2.4,1.4,4.5,3.4,5.8L2205.9,1206.9z"/>
		<path class="st13" d="M2195.7,1197.1c0.1,2.4,1.4,4.5,3.4,5.8l25.7,14.8c7,4,18.3,4,25.2,0l33.8-19.5c7-4,7-10.5,0-14.6
			l-25.7-14.8c-2-1.3-3.2-3.4-3.4-5.8v-32.5l-59,34.1V1197.1z"/>
		<path class="st15" d="M2195.7,1197.1c0.1,2.4,1.4,4.5,3.4,5.8l25.7,14.8c7,4,18.3,4,25.2,0l33.8-19.5c7-4,7-10.5,0-14.6
			l-25.7-14.8c-2-1.3-3.2-3.4-3.4-5.8v-32.5l-59,34.1V1197.1z"/>
		<path class="st16" d="M2265,1172.8L2265,1172.8l-6.8-4c-2-1.3-3.2-3.4-3.4-5.8v-32.6l-59,34.1v32.5c0.1,2.4,1.4,4.5,3.4,5.8
			l6.8,3.9L2265,1172.8z"/>
		<path class="st13" d="M2289.1,1191v4.7c0,2.6-1.8,5.3-5.2,7.3l-33.8,19.5c-3.7,2-7.8,3-12,3v-4.7c4.2,0,8.3-1,12-3l33.8-19.5
			C2287.3,1196.3,2289.1,1193.6,2289.1,1191z"/>
		<path class="st16" d="M2289.1,1191v4.7c0,2.6-1.8,5.3-5.2,7.3l-33.8,19.5c-3.7,2-7.8,3-12,3v-4.7c4.2,0,8.3-1,12-3l33.8-19.5
			C2287.3,1196.3,2289.1,1193.6,2289.1,1191z"/>
		<path class="st13" d="M2101,1237.6c2.6,1.2,5.6,1.2,8.2-0.1l228.2-131.7c2.5-1.6,4-4.3,4.2-7.3V913.9c-0.1-2.9-1.6-5.5-4-7.1
			c-2.6-1.3-5.6-1.2-8.1,0.2l-228.2,131.7c-2.5,1.6-4,4.3-4.2,7.3v184.6C2097.2,1233.3,2098.6,1236,2101,1237.6z"/>
		<path class="st13" d="M2109.2,1237.4l228.2-131.7c2.5-1.6,4-4.3,4.2-7.3V913.8c0-2.7-1.9-3.8-4.2-2.4l-228.2,131.7
			c-2.5,1.6-4,4.3-4.2,7.3V1235C2105,1237.7,2106.8,1238.8,2109.2,1237.4z"/>
		<path class="st16" d="M2109.2,1237.4l228.2-131.7c2.5-1.6,4-4.3,4.2-7.3V913.8c0-2.7-1.9-3.8-4.2-2.4l-228.2,131.7
			c-2.5,1.6-4,4.3-4.2,7.3V1235C2105,1237.7,2106.8,1238.8,2109.2,1237.4z"/>
		<path class="st13" d="M2108.5,1242.2c-2.4,1-5.2,1-7.5-0.2c-2.4-1.6-3.8-4.3-3.9-7.1v-16.8l7.9,4.6v16.8
			C2104.9,1241.9,2106.5,1243.1,2108.5,1242.2z"/>
		<path class="st16" d="M2108.5,1242.2c-2.4,1-5.2,1-7.5-0.2c-2.4-1.6-3.8-4.3-3.9-7.1v-16.8l7.9,4.6v16.8
			C2104.9,1241.9,2106.5,1243.1,2108.5,1242.2z"/>
		<path class="st13" d="M2104.9,1222.7v16.8c0,2.7,1.9,3.8,4.2,2.4l228.2-131.7c2.5-1.6,4-4.3,4.2-7.3v-16.8L2104.9,1222.7z"/>
		<path class="st15" d="M2105,1222.7v16.8c0,2.7,1.9,3.8,4.2,2.4l228.2-131.7c2.5-1.6,4-4.3,4.2-7.3v-16.8L2105,1222.7z"/>
		<path class="st13" d="M2112.8,1201.6V1053c0.1-1.8,1-3.4,2.5-4.4L2331.1,924c1.4-0.8,2.5-0.2,2.5,1.5v148.6
			c-0.1,1.8-1,3.4-2.5,4.4l-215.7,124.6C2114,1203.9,2112.8,1203.2,2112.8,1201.6z"/>
		<path class="st17" d="M2112.8,1201.6V1053c0.1-1.8,1-3.4,2.5-4.4L2331.1,924c1.4-0.8,2.5-0.2,2.5,1.5v148.6
			c-0.1,1.8-1,3.4-2.5,4.4l-215.7,124.6C2114,1203.9,2112.8,1203.2,2112.8,1201.6z"/>
		<path class="st18" d="M2106.2,1046.3c-0.7,1.3-1.2,2.7-1.2,4.1v172.3l-7.9-4.6v-172.3c0.1-1.5,0.5-2.9,1.2-4.1L2106.2,1046.3z"/>
		<path class="st15" d="M2341.5,913.1c-0.3-2.2-2-2.9-4.2-1.7l-228.1,131.7c-1.2,0.8-2.3,1.8-3,3.1l-7.9-4.6c0.7-1.3,1.7-2.3,3-3.1
			l228.2-131.7c2.5-1.3,5.6-1.4,8.2-0.2C2339.8,908.2,2341.2,910.5,2341.5,913.1z"/>
	</g>
</g>
<g id="freepik--Window--inject-2">
	<g id="freepik--window--inject-2">
		<path class="st13" d="M2130.5,1081.5c-1.2-0.8-1.9-2.1-1.9-3.5v-16.3c0.1-1.5,0.9-2.8,2.1-3.6l214.7-124c1.8-1.2,4.3-0.6,5.4,1.2
			c0.4,0.7,0.6,1.5,0.6,2.2v16.3c-0.1,1.5-0.8,2.8-2.1,3.6l-214.8,124C2133.3,1082.1,2131.8,1082.1,2130.5,1081.5z"/>
		<path class="st19" d="M2351.4,937.1c-0.1-1.1-1-1.5-2.1-0.9l-214.8,124c-0.6,0.4-1.1,0.9-1.5,1.6l-3.9-2.3
			c0.4-0.6,0.9-1.2,1.5-1.6l214.8-124c1.8-1.2,4.2-0.7,5.4,1.1C2351.1,935.7,2351.3,936.4,2351.4,937.1z"/>
		<path class="st11" d="M2134.5,1214.4c-0.5,0.3-1.1,0.5-1.6,0.5c-0.8,0.1-1.7,0-2.4-0.4c-1.2-0.8-1.9-2.1-1.9-3.5v-124.6l3.9,2.3
			v124.6c0,1,0.5,1.5,1.2,1.5C2133.9,1214.7,2134.2,1214.6,2134.5,1214.4z"/>
		<path class="st20" d="M2133,1061.8c-0.4,0.6-0.6,1.3-0.6,2.1v24.8l-3.9-2.3v-24.8c0-0.1,0-0.2,0-0.3c0-0.2,0-0.3,0.1-0.5
			c0.1-0.5,0.3-0.9,0.5-1.3L2133,1061.8z"/>
		<path class="st13" d="M2351.4,937.4v11.2l-154,89c-1.2,0.7-2.1,0.1-2.1-1.2v-4.2c0-1.3-1-1.9-2.1-1.2l-50.8,29.3
			c-1.2,0.8-2,2.2-2.1,3.6v4.2c-0.1,1.5-0.9,2.8-2.1,3.6l-5.8,3.3v-11.2c0.1-1.5,0.9-2.8,2.1-3.6l214.8-124
			C2350.4,935.6,2351.4,936.1,2351.4,937.4z"/>
		<path class="st21" d="M2351.4,1086.8c-0.1,1.5-0.9,2.8-2.1,3.6l-214.8,124c-1.2,0.7-2.1,0.1-2.1-1.2V1075l5.8-3.3
			c1.2-0.7,3-10.8,4.2-11.5l49.9-28.8c1.2-0.7,3.9,6.8,5,6.2l154-89L2351.4,1086.8L2351.4,1086.8z"/>
		<path class="st22" d="M2350.4,950.3v136.5c-0.1,1.1-0.7,2.2-1.6,2.8l-214.8,124c-0.1,0.1-0.3,0.1-0.4,0.2c-0.2,0-0.2-0.5-0.2-0.5
			v-137.6l5.3-3c0.8-0.5,1.4-2.1,2.5-6.3c0.4-1.8,1-3.5,1.7-5.2l49.5-28.6c0.6,0.8,1.1,1.6,1.6,2.5c1.3,2.4,2.1,3.6,3.2,3.6
			c0.2,0,0.4-0.1,0.6-0.2L2350.4,950.3 M2192.8,1032.2L2192.8,1032.2 M2143,1061L2143,1061 M2351.4,948.6l-154,89
			c-0.1,0-0.1,0-0.2,0c-1.2,0-3.5-6.2-4.7-6.2c-0.1,0-0.1,0-0.2,0l-49.9,28.8c-1.2,0.7-3,10.8-4.2,11.5l-5.8,3.3v138.2
			c0,1,0.5,1.5,1.2,1.5c0.3,0,0.7-0.1,1-0.3l214.8-124c1.2-0.8,2-2.2,2.1-3.6V948.6H2351.4z"/>
		<path class="st11" d="M2169.2,1135.5l28.6-16.5c0.8-0.4,1.4-0.1,1.4,0.8v48.2c-0.1,1-0.6,1.9-1.4,2.4l-28.6,16.5
			c-0.8,0.4-1.4,0.1-1.4-0.8v-48.2C2167.8,1136.9,2168.3,1136,2169.2,1135.5z"/>
		<path class="st12" d="M2174.4,1138.5l18.2-10.5c0.8-0.4,1.4-0.1,1.4,0.7c-0.1,1-0.6,1.8-1.4,2.3l-18.2,10.5
			c-0.8,0.4-1.4,0.1-1.4-0.7C2173.1,1139.8,2173.6,1139,2174.4,1138.5z"/>
		<path class="st13" d="M2173,1146.3v1.1c0,0.5,0.4,0.7,0.8,0.5l1-0.6c0.5-0.3,0.8-0.9,0.8-1.5v-1.1c0-0.5-0.4-0.8-0.8-0.5l-1,0.5
			C2173.4,1145.2,2173,1145.7,2173,1146.3z"/>
		<path class="st12" d="M2178.2,1143.8c0,0.8,0.6,1.2,1.4,0.7l12.9-7.5c0.8-0.5,1.3-1.4,1.4-2.3c0-0.8-0.6-1.2-1.4-0.7l-12.9,7.5
			C2178.8,1142,2178.3,1142.9,2178.2,1143.8z"/>
		<path class="st13" d="M2173,1152.3v1.1c0,0.5,0.4,0.7,0.8,0.5l1-0.6c0.5-0.3,0.8-0.9,0.8-1.5v-1.1c0-0.5-0.4-0.8-0.8-0.5l-1,0.5
			C2173.4,1151.2,2173,1151.7,2173,1152.3z"/>
		<path class="st12" d="M2178.2,1149.9c0,0.8,0.6,1.2,1.4,0.7l12.9-7.5c0.8-0.5,1.3-1.4,1.4-2.3c0-0.8-0.6-1.2-1.4-0.7l-12.9,7.5
			C2178.8,1148.1,2178.3,1148.9,2178.2,1149.9z"/>
		<path class="st13" d="M2173,1158.4v1.1c0,0.5,0.4,0.8,0.8,0.5l1-0.5c0.5-0.3,0.8-0.9,0.8-1.5v-1.1c0-0.5-0.4-0.7-0.8-0.5l-1,0.6
			C2173.4,1157.3,2173,1157.8,2173,1158.4z"/>
		<path class="st12" d="M2178.2,1155.9c0,0.8,0.6,1.2,1.4,0.7l12.9-7.5c0.8-0.5,1.3-1.4,1.4-2.3c0-0.8-0.6-1.2-1.4-0.7l-12.9,7.5
			C2178.8,1154.1,2178.3,1155,2178.2,1155.9z"/>
		<path class="st13" d="M2173,1164.4v1.1c0,0.5,0.4,0.8,0.8,0.5l1-0.5c0.5-0.3,0.8-0.9,0.8-1.5v-1.1c0-0.5-0.4-0.8-0.8-0.5l-1,0.5
			C2173.4,1163.3,2173.1,1163.8,2173,1164.4z"/>
		<path class="st12" d="M2178.2,1162c0,0.8,0.6,1.2,1.4,0.7l12.9-7.5c0.8-0.5,1.3-1.4,1.4-2.3c0-0.8-0.6-1.2-1.4-0.7l-12.9,7.5
			C2178.8,1160.1,2178.3,1161,2178.2,1162z"/>
		<path class="st12" d="M2174.3,1171.8l18.1-10.5c0.8-0.4,1.4-0.1,1.4,0.7c-0.1,0.9-0.6,1.8-1.4,2.3l-18.1,10.5
			c-0.8,0.4-1.4,0.1-1.4-0.7C2173,1173.2,2173.5,1172.3,2174.3,1171.8z"/>
		<path class="st13" d="M2172.9,1179.6v1.1c0,0.5,0.4,0.8,0.8,0.5l1-0.5c0.5-0.3,0.8-0.9,0.8-1.5v-1.1c0-0.5-0.4-0.8-0.8-0.5l-1,0.5
			C2173.2,1178.5,2172.9,1179,2172.9,1179.6z"/>
		<path class="st12" d="M2178.1,1177.1c0,0.8,0.6,1.2,1.4,0.7l12.9-7.5c0.8-0.5,1.3-1.4,1.4-2.3c0-0.8-0.6-1.2-1.4-0.7l-12.9,7.5
			C2178.7,1175.3,2178.2,1176.2,2178.1,1177.1z"/>
		<path class="st1" d="M2341.6,944.4c1.5-0.8,2.6-0.2,2.6,1.5c-0.1,1.9-1.1,3.6-2.6,4.6c-1.5,0.8-2.6,0.2-2.6-1.5
			C2339,947.1,2340,945.4,2341.6,944.4z"/>
		<path class="st1" d="M2332.1,949.9c1.5-0.8,2.6-0.2,2.6,1.5c-0.1,1.9-1.1,3.6-2.6,4.6c-1.5,0.8-2.6,0.2-2.6-1.5
			C2329.5,952.6,2330.5,950.9,2332.1,949.9z"/>
		<ellipse transform="matrix(0.5 -0.866 0.866 0.5 331.2298 2490.5286)" class="st1" cx="2322.5" cy="958.4" rx="3.7" ry="2.1"/>
		<path class="st23" d="M2351.4,948.6v13.6l-218.9,126.4V1075l4.3-2.5c1.2-0.7,1.5-1.7,2.1-3.6l1.5-5.1c0.5-1.8,1-3,2.1-3.6
			l49.9-28.8c1.2-0.7,2.1-0.7,2.9,0.7l1.8,3.2c0.7,1.1,1,1.8,2.1,1.1L2351.4,948.6z"/>
		<polygon class="st12" points="2132.4,1075 2132.4,1088.7 2128.5,1086.4 2128.5,1072.8 		"/>
		<path class="st24" d="M2142,1076l-3.3,1.9l1.3-2.4c0.1-0.2,0.1-0.4,0-0.6c-0.1-0.1-0.3,0-0.4,0.2l-1.8,3.4l0,0v0.1l0,0
			c0,0.1,0,0.1,0,0.2c0,0.1,0,0.1,0,0.2l0,0v0.1l0,0l1.8,1.4c0.1,0,0.1,0,0.2,0c0.1-0.1,0.2-0.1,0.2-0.3c0.1-0.2,0.1-0.4,0-0.6
			l-1.3-1l3.3-1.9c0.2-0.1,0.3-0.3,0.3-0.6C2142.3,1076,2142.2,1075.9,2142,1076z"/>
		<path class="st24" d="M2144.8,1074.4l3.3-1.9l-1.3-1c-0.1-0.1-0.1-0.3,0-0.6c0.1-0.2,0.3-0.3,0.4-0.3l1.8,1.4l0,0c0,0,0,0,0,0.1
			l0,0v0.1c0,0.1,0,0.1,0,0.2l0,0v0.1l0,0l-1.8,3.4c0,0.1-0.1,0.2-0.2,0.2c-0.1,0.1-0.1,0.1-0.2,0l0,0c-0.1-0.2-0.1-0.4,0-0.6
			l1.3-2.4l-3.3,1.9c-0.1,0.1-0.3,0-0.3-0.3C2144.5,1074.7,2144.6,1074.6,2144.8,1074.4z"/>
		<path class="st24" d="M2155.6,1065c0-0.2-0.2-0.2-0.3,0l-0.4,1.1c-0.8-0.1-1.7,0.7-2.3,2c-0.8,1.7-0.8,3.8,0,4.5
			c0.4,0.4,1,0.4,1.5,0.1c0.7-0.4,1.2-1.1,1.5-1.8c0.1-0.2,0.1-0.4,0-0.6c-0.1-0.1-0.3,0-0.4,0.2c-0.6,1.3-1.6,1.9-2.2,1.3
			c-0.6-0.6-0.6-2.1,0-3.4c0.4-0.9,1.1-1.5,1.6-1.5l-0.3,0.8c-0.1,0.2,0,0.4,0.1,0.3l1.3-0.9c0.1-0.1,0.2-0.2,0.1-0.4L2155.6,1065z"
			/>
		<path class="st24" d="M2190.9,1037.6l1.2-2.5c0.1-0.2,0.1-0.5,0-0.8c-0.1-0.1-0.4,0-0.5,0.3l-1.2,2.5l-1.2-1.2
			c-0.1-0.1-0.4,0-0.5,0.3c-0.1,0.2-0.1,0.5,0,0.8l1.2,1.2l-1.2,2.5c-0.1,0.2-0.1,0.5,0,0.8c0.1,0.1,0.2,0.1,0.3,0s0.2-0.2,0.3-0.3
			l1.2-2.5l1.2,1.2c0.1,0.1,0.2,0.1,0.3,0s0.2-0.2,0.3-0.3c0.1-0.2,0.1-0.5,0-0.8L2190.9,1037.6z"/>
		<path class="st21" d="M2159.9,1068.1v-4.2c0.1-1.5,0.9-2.8,2.1-3.6L2337.5,959c1.2-0.7,2.1-0.1,2.1,1.2v4.2
			c-0.1,1.5-0.9,2.8-2.1,3.6L2162,1069.3C2160.8,1070,2159.9,1069.4,2159.9,1068.1z"/>
		<path class="st12" d="M2334.7,968.3c-0.1,0-0.1,0-0.2,0c-0.2-0.1-0.4-0.4-0.3-0.6l0.2-1.7l-0.8-0.6c-0.1-0.1-0.2-0.3-0.2-0.5
			c0-0.3,0.1-0.5,0.3-0.7l1.2-1v-0.1l0.6-1.8c0.1-0.3,0.3-0.5,0.6-0.6c0.2,0,0.4,0.1,0.5,0.3l0,0l0.5,1l1-0.4c0.2-0.1,0.4,0,0.6,0.1
			c0.2,0.3,0.2,0.6,0,0.9l-0.9,1.7v0.1l0.2,1.5c0,0.3,0,0.6-0.2,0.8c-0.1,0.1-0.3,0.2-0.5,0.2l-1-0.1l-1.1,1.4
			C2335.1,968.3,2334.9,968.4,2334.7,968.3z M2334.1,964.8l0.8,0.6c0.2,0.1,0.3,0.4,0.2,0.6l-0.1,1.1l0.7-0.9
			c0.1-0.2,0.3-0.3,0.6-0.3l1,0.1v-0.1l-0.2-1.5c0-0.2,0-0.4,0.1-0.5l0.8-1.5l-0.8,0.3c-0.2,0.1-0.5,0-0.6-0.3l-0.4-0.8l-0.5,1.6
			c-0.1,0.2-0.2,0.3-0.3,0.5L2334.1,964.8C2334,964.8,2334.1,964.8,2334.1,964.8z M2337.2,962.2L2337.2,962.2z"/>
		<g class="st25">
			<path class="st26" d="M2342.1,958.4c-0.4,0-0.7-0.3-0.7-0.7c0-0.3,0.1-0.5,0.4-0.6l5.9-3.4c0.3-0.2,0.8-0.1,1,0.3
				c0.2,0.3,0.1,0.8-0.3,1l-5.9,3.4C2342.3,958.4,2342.2,958.4,2342.1,958.4z"/>
			<path class="st26" d="M2342.1,961.8c-0.4,0-0.7-0.3-0.7-0.7c0-0.3,0.1-0.5,0.4-0.6l5.9-3.4c0.3-0.2,0.8-0.1,1,0.3
				c0.2,0.3,0.1,0.8-0.3,1l-5.9,3.4C2342.3,961.8,2342.2,961.8,2342.1,961.8z"/>
			<path class="st26" d="M2342.1,965.2c-0.4,0-0.7-0.3-0.7-0.7c0-0.3,0.1-0.5,0.4-0.6l5.9-3.4c0.3-0.2,0.8-0.1,1,0.3
				c0.2,0.3,0.1,0.8-0.3,1l-5.9,3.4C2342.3,965.2,2342.2,965.2,2342.1,965.2z"/>
		</g>
		<polygon class="st26" points="2132.4,1088.7 2132.4,1102.3 2351.4,975.9 2351.4,962.2 		"/>
		<path class="st21" d="M2156.9,1080v2.6c0,0.5,0.4,0.8,0.8,0.5l32.9-19v-4.6l-32.9,19C2157.3,1078.8,2157,1079.4,2156.9,1080z"/>
		<path class="st13" d="M2195.1,1056.9c0.5-0.3,0.9,0,0.9,0.5v2.6c0,0.6-0.3,1.1-0.9,1.5l-4.4,2.6v-4.6L2195.1,1056.9z"/>
		<path class="st21" d="M2194.8,1060.6l-0.5-0.2c0-0.2,0.1-0.4,0.1-0.6c0-0.4-0.1-0.8-0.5-1.1c-0.2-0.1-0.5-0.1-0.7,0
			c-0.6,0.5-1,1.3-1,2.1c0,0.4,0.1,0.8,0.5,1.1c0.1,0.1,0.2,0.1,0.3,0.1s0.3,0,0.4-0.1c0.4-0.3,0.7-0.6,0.8-1.1l0.5,0.2h0.1
			c0.1,0,0.1-0.1,0.2-0.1C2195,1060.7,2194.9,1060.6,2194.8,1060.6z M2193.2,1061.5c-0.1,0.1-0.2,0.1-0.4,0
			c-0.2-0.2-0.3-0.5-0.3-0.7c0-0.7,0.3-1.3,0.8-1.7c0.1,0,0.1-0.1,0.2-0.1h0.1c0.2,0.2,0.3,0.5,0.3,0.7
			C2194.1,1060.4,2193.8,1061.1,2193.2,1061.5L2193.2,1061.5z"/>
		<path class="st21" d="M2151.2,1082.3l-2.2,1.3c-0.5,0.3-0.8,0.9-0.8,1.5v2.6c0,0.5,0.4,0.8,0.8,0.5l2.2-1.3
			c0.5-0.3,0.8-0.9,0.8-1.5v-2.6C2152.1,1082.3,2151.7,1082.1,2151.2,1082.3z"/>
		<path class="st13" d="M2229.2,1036.2c-1.8,1.2-2.9,3.1-3,5.2c0,1.9,1.3,2.7,3,1.7c1.8-1.2,2.9-3.1,3-5.2
			C2232.2,1036,2230.8,1035.3,2229.2,1036.2z"/>
		<path class="st1" d="M2228.8,1039.3c-0.1,0-0.2,0-0.3-0.1c-0.2-0.1-0.3-0.4-0.3-0.6c0-0.6,0.3-1.1,0.8-1.4l0,0
			c0.2-0.1,0.5-0.1,0.7,0s0.3,0.4,0.3,0.6c0,0.6-0.3,1.1-0.8,1.4C2229.1,1039.3,2229,1039.3,2228.8,1039.3z"/>
		<path class="st1" d="M2230.4,1039.5c-0.3-0.2-0.7-0.1-1.1,0.1l-0.4,0.3c-0.8,0.5-1.3,1.4-1.3,2.3v0.3c0.5,0.2,1.2,0.2,1.7-0.2
			c0.7-0.4,1.3-1,1.7-1.7v-0.1C2230.9,1040.1,2230.7,1039.7,2230.4,1039.5z"/>
		<path class="st12" d="M2236,1033.9l20.5-11.9c0.8-0.5,1.5-0.1,1.5,0.8c-0.1,1-0.6,2-1.5,2.6l-20.5,11.9c-0.8,0.5-1.5,0.1-1.5-0.8
			C2234.6,1035.4,2235.2,1034.5,2236,1033.9z"/>
		<path class="st12" d="M2267.4,1015.8l12.8-7.4c0.8-0.5,1.5-0.1,1.5,0.8c-0.1,1-0.6,2-1.5,2.6l-12.8,7.4c-0.8,0.5-1.5,0.1-1.5-0.8
			C2266,1017.3,2266.5,1016.4,2267.4,1015.8z"/>
		<path class="st12" d="M2291,1002.2l8.8-5.1c0.8-0.5,1.5-0.1,1.5,0.8c-0.1,1-0.6,2-1.5,2.6l-8.8,5.1c-0.8,0.5-1.5,0.1-1.5-0.8
			C2289.6,1003.8,2290.1,1002.8,2291,1002.2z"/>
		<path class="st17" d="M2262,1023.3c-0.2,0-0.4-0.2-0.4-0.4l0,0v-4.5c0-0.2,0.2-0.3,0.4-0.3c0.2,0,0.3,0.1,0.3,0.3v4.5
			C2262.4,1023.1,2262.2,1023.3,2262,1023.3z"/>
		<path class="st17" d="M2285.6,1009.7c-0.2,0-0.4-0.2-0.4-0.4l0,0v-4.5c0-0.2,0.2-0.3,0.4-0.3c0.2,0,0.3,0.1,0.3,0.3v4.5
			C2285.9,1009.5,2285.8,1009.6,2285.6,1009.7z"/>
		<path class="st17" d="M2305.2,998.3c-0.2,0-0.4-0.2-0.4-0.4v-4.5c0-0.2,0.1-0.4,0.3-0.4c0.2,0,0.4,0.1,0.4,0.3v0.1v4.5
			C2305.6,998.2,2305.4,998.3,2305.2,998.3z"/>
		<path class="st13" d="M2312.8,991.3v-0.8c0-1-0.6-1.4-1.3-1l0,0c-0.8,0.6-1.3,1.5-1.3,2.5v0.8c0,0.5-0.2,1-0.4,1.5l0,0
			c-0.1,0.1-0.1,0.2-0.1,0.4l0,0c0,0.2,0.1,0.3,0.3,0.3l3-1.7c0.2-0.1,0.3-0.4,0.3-0.6l0,0c0-0.1,0-0.2-0.1-0.3l0,0
			C2312.9,992.1,2312.7,991.7,2312.8,991.3z"/>
		<path class="st13" d="M2312.1,993.8c0,0.5-0.2,0.9-0.6,1.2c-0.3,0.2-0.6,0-0.6-0.5L2312.1,993.8z"/>
		<path class="st13" d="M2318.3,987.7c-0.1,0-0.2,0-0.3-0.1c-0.2-0.1-0.3-0.4-0.3-0.7c0-0.6,0.4-1.2,0.9-1.5l0,0
			c0.2-0.2,0.5-0.2,0.8-0.1c0.2,0.1,0.3,0.4,0.3,0.7c0,0.6-0.4,1.2-0.9,1.5C2318.6,987.6,2318.5,987.7,2318.3,987.7z"/>
		<path class="st13" d="M2320,987.9c-0.4-0.2-0.8-0.2-1.2,0.1l-0.5,0.3c-0.9,0.6-1.5,1.6-1.5,2.6v0.3c0.6,0.3,1.3,0.2,1.9-0.2
			c0.8-0.5,1.4-1.1,1.9-1.9V989C2320.6,988.6,2320.4,988.2,2320,987.9z"/>
		<path class="st13" d="M2320.7,985.4c-0.1,0-0.2,0-0.3-0.1c-0.2-0.1-0.4-0.4-0.3-0.7c0-0.6,0.4-1.2,0.9-1.5l0,0
			c0.3-0.2,0.7-0.2,0.9,0.1c0.1,0.1,0.2,0.3,0.1,0.5c0,0.6-0.4,1.2-0.9,1.5C2321,985.4,2320.9,985.4,2320.7,985.4z"/>
		<path class="st13" d="M2322.4,985.7c-0.4-0.2-0.8-0.2-1.2,0.1l-0.5,0.3c-0.6,0.3-1,0.9-1.2,1.5c0.3-0.2,0.7-0.2,1.1,0
			c0.4,0.3,0.6,0.7,0.5,1.1v0.2c0.8-0.5,1.4-1.1,1.9-1.9v-0.1C2323,986.4,2322.8,985.9,2322.4,985.7z"/>
		<path class="st13" d="M2328.4,979.5c-1.5,0.9-2.4,2.5-2.5,4.3c0,0.5,0.2,1.1,0.6,1.5l-0.3,1.5c0,0.2,0.1,0.3,0.2,0.1l1.1-1.3
			c0.3,0,0.6-0.2,0.9-0.3c1.5-1,2.4-2.5,2.5-4.3C2330.9,979.3,2329.8,978.7,2328.4,979.5z"/>
		<path class="st13" d="M2340.2,972.6c0.2-0.1,0.4-0.2,0.6-0.2s0.3,0,0.5,0.1c0.1,0.1,0.3,0.2,0.3,0.4c0.1,0.2,0.1,0.4,0.1,0.7
			c0,0.2,0,0.4-0.1,0.6c0,0.2-0.1,0.4-0.2,0.5c-0.1,0.2-0.2,0.3-0.2,0.5c-0.1,0.2-0.2,0.3-0.2,0.4c-0.1,0.1-0.2,0.3-0.2,0.4
			c-0.1,0.1-0.1,0.3-0.1,0.4c0,0.1,0,0.1,0,0.2c0,0.1-0.1,0.1-0.1,0.1l-0.7,0.4h-0.1c0,0-0.1-0.1,0-0.1c0-0.2,0-0.4,0.1-0.6
			c0.1-0.2,0.1-0.4,0.2-0.5c0.1-0.2,0.2-0.3,0.3-0.5c0.1-0.2,0.2-0.3,0.3-0.5c0.1-0.1,0.1-0.3,0.2-0.4c0.1-0.1,0.1-0.2,0.1-0.4
			s0-0.3-0.1-0.3c-0.1,0-0.2,0-0.4,0.1c-0.2,0.1-0.3,0.2-0.4,0.3c-0.1,0.1-0.1,0.2-0.2,0.4c0,0.1-0.1,0.2-0.1,0.3s-0.1,0.2-0.1,0.2
			l-0.7,0.4h-0.1v-0.1c0-0.2,0-0.5,0.1-0.7c0.1-0.3,0.2-0.6,0.3-0.8c0.1-0.3,0.3-0.5,0.5-0.8C2339.8,972.9,2340,972.7,2340.2,972.6z
			 M2340.7,978.4c0,0.1,0,0.1,0,0.2c0,0.1-0.1,0.1-0.1,0.1l-0.7,0.4h-0.1c0,0-0.1-0.1,0-0.1v-0.9c0-0.1,0-0.1,0-0.2
			c0-0.1,0.1-0.1,0.1-0.1l0.7-0.4h0.1c0,0,0.1,0.1,0,0.1V978.4z"/>
		<path class="st13" d="M2167.8,1088.8v40.5c0,1.3,1,1.9,2.1,1.2l144.1-83.2c1.2-0.8,2-2.2,2.1-3.6v-40.5c0-1.3-1-1.9-2.1-1.2
			l-144.1,83.2C2168.6,1086,2167.8,1087.3,2167.8,1088.8z"/>
		<path class="st27" d="M2167.8,1088.8v40.5c0,1.3,1,1.9,2.1,1.2l144.1-83.2c1.2-0.8,2-2.2,2.1-3.6v-40.5c0-1.3-1-1.9-2.1-1.2
			l-144.1,83.2C2168.6,1086,2167.8,1087.3,2167.8,1088.8z"/>
		<path class="st13" d="M2179.6,1094.7c-4.3,2.5-7.9,8.6-7.9,13.6s3.5,7,7.9,4.5c4.3-2.5,7.9-8.6,7.9-13.6
			S2183.9,1092.2,2179.6,1094.7z"/>
		<path class="st1" d="M2178.6,1102.7c-0.2,0-0.5-0.1-0.7-0.2c-0.5-0.3-0.8-1-0.8-1.6c0.1-1.5,0.8-2.8,2.1-3.6l0,0
			c0.7-0.5,1.6-0.4,2.2,0.2c0.3,0.3,0.4,0.8,0.3,1.2c-0.1,1.5-0.8,2.8-2.1,3.6C2179.4,1102.6,2179,1102.7,2178.6,1102.7z"/>
		<path class="st1" d="M2182.7,1103.2c-0.9-0.4-2-0.4-2.8,0.2l-1.1,0.7c-2.1,1.4-3.4,3.6-3.5,6.1v0.8c1.1,0.6,2.6,0.5,4.3-0.5
			c1.8-1.1,3.3-2.7,4.3-4.5v-0.2C2184,1104.8,2183.5,1103.8,2182.7,1103.2z"/>
		<path class="st26" d="M2192.8,1093l16.6-9.6c0.8-0.5,1.5-0.2,1.5,0.7c-0.1,1-0.7,1.9-1.5,2.4l-16.6,9.6c-0.8,0.5-1.5,0.2-1.5-0.7
			C2191.4,1094.5,2192,1093.6,2192.8,1093z"/>
		<path class="st26" d="M2192.2,1099.5l9.8-5.6c0.5-0.3,0.9-0.1,0.9,0.4c-0.1,0.6-0.4,1.1-0.9,1.4l-9.8,5.6
			c-0.5,0.3-0.9,0.1-0.9-0.4C2191.4,1100.3,2191.7,1099.8,2192.2,1099.5z"/>
		<path class="st28" d="M2169.9,1130.6l144.1-83.2c1.2-0.8,2-2.2,2.1-3.6v-6.6l-148.2,85.6v6.7
			C2167.8,1130.7,2168.7,1131.2,2169.9,1130.6z"/>
		<path class="st29" d="M2207,1107.1c-0.2,0-0.4-0.1-0.4-0.3l0,0v-4.5c0-0.2,0.2-0.4,0.3-0.4l0,0c0.2,0,0.4,0.2,0.4,0.4l0,0v4.5
			C2207.4,1107,2207.2,1107.1,2207,1107.1L2207,1107.1z"/>
		<path class="st12" d="M2189.5,1113.1l12.7-7.4c0.8-0.5,1.5-0.1,1.5,0.8c-0.1,1-0.6,2-1.5,2.6l-12.7,7.5c-0.8,0.5-1.5,0.1-1.5-0.8
			C2188,1114.7,2188.6,1113.7,2189.5,1113.1z"/>
		<path class="st29" d="M2230.1,1093.8c-0.2,0-0.4-0.2-0.4-0.4l0,0v-4.5c0-0.2,0.2-0.4,0.4-0.4c0.2,0,0.4,0.2,0.4,0.4v4.5
			C2230.4,1093.6,2230.3,1093.8,2230.1,1093.8L2230.1,1093.8z"/>
		<path class="st12" d="M2212.5,1099.7l12.7-7.4c0.8-0.5,1.5-0.1,1.5,0.8c-0.1,1-0.6,2-1.5,2.6l-12.7,7.4c-0.8,0.5-1.5,0.1-1.5-0.8
			C2211,1101.3,2211.6,1100.3,2212.5,1099.7z"/>
		<path class="st29" d="M2253.1,1080.4c-0.2,0-0.4-0.2-0.4-0.4v-4.5c0-0.2,0.2-0.4,0.4-0.4l0,0c0.2,0,0.4,0.2,0.4,0.4l0,0v4.5
			C2253.4,1080.2,2253.3,1080.4,2253.1,1080.4z"/>
		<path class="st12" d="M2235.5,1086.4l12.7-7.4c0.8-0.5,1.5-0.1,1.5,0.8c-0.1,1-0.6,2-1.5,2.6l-12.7,7.4c-0.8,0.5-1.5,0.1-1.5-0.8
			C2234.1,1087.9,2234.6,1086.9,2235.5,1086.4z"/>
		<path class="st29" d="M2276.1,1067c-0.2,0-0.4-0.2-0.4-0.4l0,0v-4.5c0-0.2,0.2-0.4,0.4-0.4l0,0c0.2,0,0.4,0.1,0.4,0.3l0,0v4.5
			C2276.5,1066.8,2276.3,1067,2276.1,1067L2276.1,1067z"/>
		<path class="st12" d="M2258.5,1073l12.7-7.4c0.8-0.5,1.5-0.1,1.5,0.8c-0.1,1-0.6,2-1.5,2.6l-12.7,7.4c-0.8,0.5-1.5,0.1-1.5-0.8
			C2257.1,1074.5,2257.7,1073.6,2258.5,1073z"/>
		<path class="st12" d="M2281.5,1059.6l12.8-7.4c0.8-0.5,1.5-0.1,1.5,0.8c-0.1,1-0.6,2-1.5,2.6l-12.8,7.4c-0.8,0.5-1.5,0.1-1.5-0.8
			C2280.1,1061.1,2280.7,1060.2,2281.5,1059.6z"/>
	</g>
</g>
<g id="freepik--Plants--inject-2">
	<g id="freepik--plants--inject-2">
		<path class="st13" d="M2162.7,1266.3l12.8-7.4c0,0,8-23.5,6-45.1c-2.5-26.9-15.2-36.3-22.7-33.3s-5.9,13.7,2,28
			C2167.1,1219.9,2167.1,1246.1,2162.7,1266.3z"/>
		<path class="st20" d="M2162.7,1266.3l12.8-7.4c0,0,8-23.5,6-45.1c-2.5-26.9-15.2-36.3-22.7-33.3s-5.9,13.7,2,28
			C2167.1,1219.9,2167.1,1246.1,2162.7,1266.3z"/>
		<path class="st1" d="M2168.9,1263.3c0.2,0,0.5-0.2,0.6-0.4c8.3-25.3,8.6-60.9-7-77c-0.2-0.2-0.6-0.2-0.8,0s-0.2,0.6,0,0.8l0,0
			c14.8,15.1,15,50.4,6.8,75.8C2168.4,1262.8,2168.6,1263.1,2168.9,1263.3L2168.9,1263.3C2168.8,1263.3,2168.8,1263.3,2168.9,1263.3
			z"/>
		<path class="st13" d="M2139.6,1279.6c-1.3,0.8-4.1-0.9-5.1-1.6c-1.8-1.2-3.3-2.9-4.2-4.8c-1.1-2.2-1.5-4.7-1.1-7.2
			c0.2-1.3,0.5-2.6,0.9-3.8c0.4-1.2,0.7-2.5,1.1-3.7c0.4-1.2,0.6-2.5,0.5-3.7c-0.3-2.5-2.6-4.3-4.6-5.8c-2.3-1.7-4.6-3.9-4.6-7
			c0.2-2.4,1.1-4.6,2.7-6.4c1.5-1.8,3.2-3.5,4.5-5.4c1-1.4,1.6-3,1.5-4.7c-0.1-1-0.5-2-1-2.9c-1.1-2-2.5-3.8-3.2-5.9
			c-0.7-2.1-0.6-4.8,1-6.3c1.4-1.2,3.4-1.4,5.2-1.3c1.7,0.2,3.4,0.8,4.8,1.7c4.8,2.7,7.6,8.4,12.7,10.5c1.9,0.8,4.1,1,6.2,1.5
			c2.1,0.5,4.2,1.6,5.1,3.5c1.9,3.8-1.6,8.4-0.3,12.4c1.2,3.5,4.6,4.8,6.5,8c0.8,1.4,1.1,3,0.9,4.6c-0.2,2.7-0.8,5.3-1.9,7.8
			c-1.2,2.4-2.7,4.8-4.3,7C2162.9,1266.2,2139.8,1279.5,2139.6,1279.6z"/>
		<path class="st1" d="M2153.4,1272.2c0.3,0,0.5-0.2,0.5-0.5c2.5-19.7-6.9-46.2-21-59.2c-0.2-0.2-0.6-0.1-0.7,0.1
			c-0.2,0.2-0.1,0.5,0,0.7c13.8,12.8,23.1,38.9,20.6,58.3C2152.9,1271.9,2153.1,1272.2,2153.4,1272.2L2153.4,1272.2z"/>
		<path class="st1" d="M2151,1247c0.2,0,0.3-0.1,0.4-0.2c0.2-0.2,0.1-0.6-0.1-0.7c-7.7-5.8-19.6-4.8-20.1-4.8
			c-0.3,0-0.5,0.3-0.5,0.6l0,0c0,0.3,0.3,0.5,0.6,0.5c0.1,0,11.9-1,19.3,4.5C2150.8,1246.9,2150.9,1247,2151,1247z"/>
		<path class="st1" d="M2149.8,1242.1c0.3,0,0.5-0.2,0.5-0.5c0.4-9,7.2-14.5,7.2-14.5c0.2-0.2,0.3-0.5,0.1-0.7l0,0
			c-0.2-0.2-0.5-0.3-0.7-0.1c-4.5,3.8-7.3,9.4-7.6,15.3C2149.3,1241.9,2149.5,1242.2,2149.8,1242.1L2149.8,1242.1z"/>
	</g>
</g>
<g id="freepik--Post--inject-2">
	<g id="freepik--post--inject-2">
		<path class="st29" d="M2277.7,1263.2c-17.4-10-29.2-27.4-32.2-47.3l-6.9-45.5c-2.6-17.5-12.2-33.3-26.6-43.6l-8.9-6.4v5.1l4.8,3.5
			c14.3,10.3,23.9,26,26.6,43.5l7,45.8c3,19.8,14.9,37.1,32.2,47.1l4,2.3V1263.2L2277.7,1263.2z"/>
		<path class="st21" d="M2355.5,1152.5l-6.9-45.5c-2.6-17.5-12.2-33.3-26.6-43.6l-8.9-6.5l-110,63.5l8.9,6.5
			c14.4,10.4,24,26.1,26.6,43.6l6.9,45.5c3,19.8,14.8,37.2,32.2,47.3l0,0l110-63.5l0,0C2370.3,1189.7,2358.5,1172.3,2355.5,1152.5z"
			/>
		<path class="st12" d="M2313,1058l8.4,6.1c14.1,10.3,23.6,25.7,26.2,43l6.8,45.5c2.9,19.6,14.4,36.8,31.3,47.1l-108.1,62.4
			c-16.9-9.9-28.4-26.9-31.3-46.3l-6.8-45.5c-2.7-17.8-12.4-33.7-27-44.3l-7.7-5.6L2313,1058L2313,1058z M2313.1,1056.9l-110,63.5
			l8.9,6.5c14.4,10.4,24,26.1,26.6,43.6l6.9,45.5c3,19.8,14.8,37.2,32.2,47.3l0,0l110-63.5c-17.4-10-29.2-27.4-32.2-47.3l-6.9-45.5
			c-2.6-17.5-12.2-33.3-26.6-43.6L2313.1,1056.9L2313.1,1056.9z"/>
		<polygon class="st28" points="2277.7,1263.2 2387.7,1199.8 2387.7,1204.3 2277.7,1267.8 		"/>
		<path class="st13" d="M2223.7,1117c-3.9,1.6-4.2,5-0.9,7.5c3.8,2.6,8.6,3.1,13,1.6c3.9-1.6,4.3-5,1-7.5
			C2232.9,1116,2228,1115.4,2223.7,1117z"/>
		<path class="st1" d="M2227.8,1121c-0.3,0-0.6,0-1,0c-0.7-0.1-1.4-0.3-2-0.7c-0.9-0.7-0.8-1.5,0.2-1.9l0,0c0.7-0.3,1.4-0.3,2.1-0.2
			s1.4,0.3,2,0.7c0.9,0.7,0.8,1.5-0.2,1.9C2228.6,1121,2228.2,1121,2227.8,1121z"/>
		<path class="st1" d="M2233.3,1121c-1.1-0.2-2.3-0.1-3.4,0.3l-1,0.4c-1.8,0.8-1.9,2.2-0.4,3.4l0.5,0.4c1.8,0.3,3.7,0.1,5.5-0.4
			c1.7-0.6,2.7-1.4,2.8-2.4l-0.7-0.5C2235.6,1121.5,2234.5,1121.1,2233.3,1121z"/>
		<path class="st26" d="M2241.5,1109.8l32.3-18.7c1.3-0.7,2.8-0.6,4.1,0.2l0.3,0.2c0.7,0.5,0.9,1.4,0.5,2.2
			c-0.2,0.3-0.4,0.5-0.7,0.6l-32.3,18.7c-1.3,0.6-2.8,0.5-3.9-0.3c-0.1-0.1-0.2-0.2-0.3-0.3c-0.7-0.4-1-1.3-0.6-2
			C2241,1110.2,2241.2,1110,2241.5,1109.8z"/>
		<path class="st26" d="M2248.6,1117.4l16.2-9.3c0.4-0.2,0.6-0.7,0.4-1.2c-0.1-0.1-0.1-0.2-0.2-0.3l-0.3-0.3
			c-0.5-0.5-1.3-0.6-1.9-0.2l-16.1,9.4c-0.4,0.2-0.6,0.7-0.4,1.2c0.1,0.1,0.1,0.2,0.2,0.3l0.2,0.2
			C2247.2,1117.6,2248,1117.7,2248.6,1117.4z"/>
		<path class="st30" d="M2238,1135.1l87.1-50.3c1.2-0.7,2.7-0.3,3.5,0.8l0.2,0.3c0.7,1,0.4,2.4-0.6,3.1c-0.1,0-0.1,0.1-0.2,0.1
			l-87.2,50.4c-1.2,0.7-2.7,0.3-3.4-0.8l-0.2-0.3c-0.7-1-0.5-2.4,0.5-3.1C2237.9,1135.2,2238,1135.1,2238,1135.1z"/>
		<path class="st30" d="M2243.3,1143.7l87.2-50.3c1.1-0.6,2.4-0.3,3.1,0.8c0,0.1,0.1,0.1,0.1,0.2l0.1,0.3c0.5,1.3,0.1,2.7-1.1,3.4
			l-87.3,50.4c-1,0.6-2.3,0.3-2.9-0.7c0-0.1-0.1-0.2-0.1-0.2l-0.2-0.3C2241.7,1145.9,2242.1,1144.4,2243.3,1143.7z"/>
		<path class="st30" d="M2247.3,1153l87.3-50.4c0.9-0.6,2-0.3,2.6,0.5c0.1,0.2,0.2,0.4,0.2,0.6l0.1,0.4c0.3,1.4-0.3,2.8-1.5,3.5
			l-87.2,50.5c-0.8,0.5-1.9,0.3-2.5-0.5c-0.1-0.2-0.2-0.4-0.3-0.6c0-0.2-0.1-0.3-0.1-0.5C2245.6,1155.2,2246.1,1153.8,2247.3,1153z"
			/>
		<path class="st30" d="M2249.8,1163.2l50.8-29.3c0.7-0.5,1.6-0.4,2.2,0.3c0.2,0.3,0.3,0.6,0.3,0.9l0.1,0.7c0.1,1.4-0.5,2.8-1.7,3.6
			l-50.8,29.3c-0.7,0.5-1.6,0.4-2.2-0.3c-0.2-0.3-0.3-0.6-0.3-0.9c0-0.2-0.1-0.5-0.1-0.7C2247.9,1165.3,2248.6,1164,2249.8,1163.2z"
			/>
		<path class="st13" d="M2354.7,1190.7l-83,48c-2.4,1.4-5.4,0.7-7-1.5c-5.3-8-8.8-18.1-10.5-30.1l-3.3-22c-0.3-2.9,1-5.6,3.5-7.2
			l83.2-48c2.3-1.3,4.5-0.3,4.9,2.4l3.3,22c1.1,10.7,4.7,21,10.5,30.1c1.4,2,0.9,4.7-1,6.1C2355,1190.6,2354.8,1190.7,2354.7,1190.7
			z"/>
		<path class="st27" d="M2354.7,1190.7l-83,48c-2.4,1.4-5.4,0.7-7-1.5c-5.3-8-8.8-18.1-10.5-30.1l-3.3-22c-0.3-2.9,1-5.6,3.5-7.2
			l83.2-48c2.3-1.3,4.5-0.3,4.9,2.4l3.3,22c1.1,10.7,4.7,21,10.5,30.1c1.4,2,0.9,4.7-1,6.1C2355,1190.6,2354.8,1190.7,2354.7,1190.7
			z"/>
		<path class="st13" d="M2271.7,1238.7l83-48c2.1-1.2,2.9-3.9,1.6-6c-0.1-0.1-0.2-0.3-0.2-0.4c-2.7-4.2-4.9-8.7-6.6-13.4l-25.8-7.3
			l-11.4,25.4l12.4,10l-43.4-22.8l-22.2,50.4c1.5,3.7,3.3,7.2,5.4,10.6C2266.3,1239.4,2269.3,1240.1,2271.7,1238.7z"/>
		<path class="st13" d="M2306.5,1158.3c3.1-1.8,6-0.3,6.5,3.3c0.4,3.8-1.3,7.6-4.6,9.7c-3.1,1.8-6,0.3-6.5-3.3
			C2301.5,1164.1,2303.3,1160.4,2306.5,1158.3z"/>
		<path class="st13" d="M2331.7,1219.2c-0.3,0-0.6,0-0.8,0c-0.6-0.1-1.2-0.3-1.7-0.6c-0.7-0.6-0.6-1.3,0.2-1.6l0,0
			c0.6-0.2,1.2-0.3,1.8-0.2s1.2,0.3,1.7,0.6c0.7,0.6,0.6,1.3-0.2,1.7C2332.3,1219.1,2332,1219.2,2331.7,1219.2z"/>
		<path class="st13" d="M2336.3,1219.1c-0.9-0.1-1.9,0-2.8,0.3l-0.8,0.3c-1.5,0.6-1.6,1.9-0.3,2.8l0.4,0.3c1.5,0.2,3.1,0.1,4.6-0.4
			c1.4-0.5,2.2-1.2,2.4-2l-0.6-0.4C2338.2,1219.5,2337.3,1219.2,2336.3,1219.1z"/>
		<path class="st13" d="M2337.9,1215.5l-3.1,0.2l-0.8,0.7c-0.1,0.1-0.1,0.3,0,0.4l0,0l0.8,0.7l3.2-0.1L2337.9,1215.5z
			 M2334.5,1216.8c-0.1,0-0.2-0.1-0.2-0.2l0,0c0-0.1,0.1-0.2,0.2-0.2l0,0c0.1,0,0.2,0.1,0.2,0.2l0,0
			C2334.8,1216.7,2334.7,1216.8,2334.5,1216.8L2334.5,1216.8z"/>
		<path class="st13" d="M2354,1209.9c0,0.5-0.6,0.9-1,1.1c-0.7,0.4-1.4,0.6-2.2,0.7C2350.1,1210.9,2351.5,1209.4,2354,1209.9z"/>
		<path class="st13" d="M2354.1,1206.9c-2.3-1.9-5.9-2.6-8.4-1.1c-2.5,1.4-3,4.5-0.7,6.4s6.4,1.9,8.9,0.5
			S2356.4,1208.8,2354.1,1206.9z M2350.3,1206.5c0.4-0.2,0.9-0.1,1.3,0.2c0.2,0.2,0.3,0.6,0.1,0.8c-0.1,0.1-0.1,0.1-0.2,0.1
			c-0.4,0.2-1,0.2-1.3-0.1c-0.3-0.2-0.3-0.6,0-0.9C2350.2,1206.5,2350.3,1206.5,2350.3,1206.5z M2345.7,1210c-0.3-0.2-0.3-0.6,0-0.9
			c0.1-0.1,0.1-0.1,0.2-0.1c0.4-0.2,0.9-0.1,1.3,0.2c0.2,0.2,0.3,0.6,0.1,0.8c-0.1,0.1-0.1,0.1-0.2,0.2
			C2346.6,1210.4,2346.1,1210.3,2345.7,1210L2345.7,1210z M2353.3,1211.4c-1.1,0.6-2.3,0.9-3.5,0.8c-1.1,0-2.1-0.2-3.1-0.6l6.5-3.7
			c0.7,0.5,1.1,1.2,1.2,2C2354.4,1210.6,2353.9,1211.2,2353.3,1211.4L2353.3,1211.4z"/>
		<path class="st13" d="M2367.7,1198.4c-0.2-0.4-0.5-0.7-0.9-1c-1.6-1.4-3.9-1.7-5.9-0.8c-1.3,0.6-1.9,2.2-1.3,3.5
			c0.2,0.4,0.5,0.7,0.8,1c0.2,0.2,0.4,0.3,0.6,0.4l0,0c2.9,1.7,8.2,1.9,8.2,1.9C2369.3,1201.6,2368.7,1199.9,2367.7,1198.4z
			 M2365.2,1200.2c-0.9,0.5-2.1,0.4-3-0.2c-0.6-0.4-0.7-1.2-0.2-1.8c0.1-0.2,0.3-0.3,0.5-0.4c0.9-0.4,2-0.3,2.8,0.4
			C2366,1198.9,2366.1,1199.7,2365.2,1200.2L2365.2,1200.2z"/>
	</g>
</g>
<g id="freepik--Character--inject-2">
	<g id="freepik--character--inject-2">
		<path class="st31" d="M2472.8,1208.6l-12.4,36.3c-0.2,0.6-0.9,0.9-1.5,0.7c-0.3-0.1-0.6-0.4-0.7-0.7l-12.3-36.6L2472.8,1208.6z"/>
		<path class="st17" d="M2458.1,1244.9c0.2,0.6,0.9,0.9,1.5,0.7c0.3-0.1,0.6-0.4,0.7-0.7l2.4-7.1l0,0c-2.1,1.1-4.7,1-6.7-0.4
			l-0.5-0.4L2458.1,1244.9z"/>
		<path class="st13" d="M2446.3,1046.5v3.5v4.3l-0.4,154c3,3.1,7,5,11.3,5.3c6.5,0.7,13.2-1.5,15.6-5l0.4-153.9v-8.2
			C2472.9,1051.8,2446.1,1051.8,2446.3,1046.5z"/>
		<path class="st29" d="M2446.2,1060v7.9c-0.1,2.3,4.8,3.8,10.5,4.3c7.5,0.7,16.3-1.3,16.4-4.4v-5.8v-2.1c-0.1,3-9,5.1-16.4,4.4
			c-5.4-0.5-10.2-1.9-10.4-4.1l0,0C2446.3,1060.2,2446.2,1060.1,2446.2,1060z"/>
		<path class="st13" d="M2446.3,1062c-0.2,5.3,26.7,5.3,26.9-0.1v-7.9c-0.2,5.3-27.1,5.4-26.9,0.1V1062z"/>
		<path class="st29" d="M2446.3,1046.5v7.8c-0.2,5.2,25.7,5.4,26.9,0.4c0-0.1,0-0.2,0-0.3v-7.9
			C2472.9,1051.8,2446.1,1051.8,2446.3,1046.5z"/>
		<path class="st32" d="M2473.3,1012.9v-0.3c0-3.8-6-6.9-13.4-6.9c-7.4,0-13.4,3.1-13.4,6.9v3.6l-0.1,30.3
			c-0.1,2.3,4.7,3.8,10.3,4.3c7.5,0.7,16.4-1.2,16.5-4.3l0,0l0.1-33.4C2473.3,1013.1,2473.3,1013,2473.3,1012.9z"/>
		<ellipse class="st6" cx="2459.9" cy="1012.6" rx="13.4" ry="6.9"/>
		<path class="st20" d="M2473.2,1054.7l0.1-41.8c-0.2,3.3-5.8,6.4-11.8,6.6l-0.4,194.2l-0.7,31.1l12.4-36.3l0,0L2473.2,1054.7z"/>
		<path class="st33" d="M2429.7,1087.1c5.1-0.7,11.4,3.1,15.8,9.3c4.4,6.2,19.7,21.2,21.4,26c1.2,3.5,0.5,10-6.7,7
			c-7-3-29.2-24.8-29.2-24.8L2429.7,1087.1z"/>
		<path class="st34" d="M2427.2,1087.1c1.6-0.4,3.3-0.5,5-0.6c1.8,0.1,5.7,1.2,9.8,5.2s14.7,16.9,14.7,16.9s0.5,3.6-3.1,7.6
			c-3.6,4-6.9,4-6.9,4l-15.8-13.1L2427.2,1087.1z"/>
		<path class="st33" d="M2461.9,1115.2l11.2-16.3v-12c0,0,2.5,0.8,3.5,4.7s2.2,8.3,1.7,11.6s-8.3,23.2-12.4,26
			C2461.8,1132,2461.9,1115.2,2461.9,1115.2z"/>
		<polygon class="st33" points="2411.4,1081.7 2413.6,1095.5 2427.2,1094.7 2425.3,1078.7 		"/>
		<path class="st35" d="M2402.2,1064.8c0,0-3.2,4.9-2.9,5.4c0.3,0.5,2.8,1,2.8,1L2402.2,1064.8z"/>
		<path class="st33" d="M2411.2,1051.2c-6.6,1.4-8.5,4.3-9.1,14.7c-0.6,10.9,0.5,14.4,1.9,15.8c1,1,6.4,1.2,9.1,0.4
			c3.4-1,11.1-3.7,14.7-9.2c4.2-6.5,5.3-15.2,0.8-18.8C2422.3,1049.1,2414,1050.6,2411.2,1051.2z"/>
		<path class="st35" d="M2411.5,1082.5c1.2-0.2,2.3-0.5,3.5-0.9c-0.9,1-2,1.7-3.3,1.9L2411.5,1082.5z"/>
		<path class="st17" d="M2401.8,1054.5c0.9,0.5,1.9,0.9,2.9,1.2c1.6,0.5,1.4,1.1,1.6,2.5c0.2,1.3,0.8,2.5,1.8,3.5
			c0.6,0.6,1.1,0.6,1.3,1.5c0.1,0.9,0.1,1.8,0,2.7c0,1.8,1.2,3.2,1.7,0.8c0,0,1-4,4.4-3.5c3.4,0.5,3.7,4.3,2.1,7.3
			c-1,1.8-3.6,1.4-3.6,1.4c-0.2,3.4,1.1,6.8,3.6,9.2c0,0,3.4,2.5,8.7-0.1c2.3-2.9,4.3-6,6.1-9.2c2.4-4.1,4.4-9.1,3.6-14
			c-0.3-1.8-1.1-3.5-2.3-4.8c-0.7-0.6-1.1-1.5-1.1-2.4c-0.2-1.1-0.8-2.1-1.6-2.8c-1.4-1.1-3.2-1.3-4.8-0.6c-0.1-1.7-1.4-3.2-3.1-3.6
			c-1.7-0.3-3.4-0.1-4.9,0.7c-1.5-2.6-4.8-3.5-7.4-2.1c-0.7,0.4-1.3,0.9-1.7,1.5c-0.5-0.8-1.4-1.3-2.3-1.3c-0.9,0-1.8,0.1-2.7,0.4
			c-0.7,0.2-1.4,0.5-2.1,0.9c-2.4,1.5-3.6,4.4-3,7.2C2399.3,1052.4,2400.4,1053.7,2401.8,1054.5z"/>
		<path class="st17" d="M2432.6,1053.4l3.9-2.3c-0.6-1.1-2-1.4-3.1-0.8C2432.3,1050.9,2431.9,1052.3,2432.6,1053.4L2432.6,1053.4z"
			/>
		<path class="st17" d="M2436.2,1257.8l0.1,0.9c0.2,1.2,0.2,2.3,0.1,3.5c0,0.9-0.4,1.8-1.1,2.3c-0.8,0.4-1.7,0.8-2.6,1
			c-2,0.5-4.1,0.3-6-0.6c-1.5-0.7-2.8-1.9-4.4-2.4c-1.7-0.4-3.5-0.7-5.3-0.9c-0.8-0.1-1.6-0.2-2.3-0.4c-0.6-0.2-1.1-0.5-1.7-0.8
			c-1.9-0.9-3.6-2.1-5-3.6c-0.9-1-1.5-2.2-1.8-3.5c-0.2-0.8-0.5-3,0.8-3c6.3,0.3,12.6,1.6,18.9,1.6c0.4,0,0.8,0,1.2,0
			c0.8,0.2,1.5,0.5,2.1,1c0.5,0.5,1.3,0.6,1.9,0.5c1.1-0.2,2.2-0.2,3.3,0c0.5,0.1,0.9,0.4,1.1,0.8c0.1,0.2,0.1,0.3,0.1,0.5
			C2436,1255.8,2436.2,1256.7,2436.2,1257.8z"/>
		<path class="st33" d="M2435.6,1250.2l-0.3,4.8c-0.3,1.8-6.5,2.9-7.7-0.3l-0.6-5.4L2435.6,1250.2z"/>
		<path class="st17" d="M2412,1269.1c0,0,0.8,2.5,1.2,4.6c0.3,1.7,0.7,4.6,0.1,5.9c-0.6,1.3-3,2-6.6,1.9c-2.3-0.1-6,1.4-8.6,2.8
			c-2.6,1.4-8,1.8-10.8,1.5c-3.2-0.5-6.5-2.4-7-3.8c-0.5-1.3,0.2-2.7,7.9-5.8c0.1,0,10.6-3.2,14.4-7.2L2412,1269.1z"/>
		<path class="st33" d="M2412.1,1266c0,0-0.1,2.1-0.1,3.3s-1.5,3-5.2,2.7c-2.6-0.2-4.4-0.9-4.2-3l0.1-3.1L2412.1,1266z"/>
		<path class="st13" d="M2438.1,1213.5c-1.1-9.3-1.9-14.6-1.9-14.6s0.2-12.9,1-25c0.8-13,0.6-29.4,1-32.7c0,0-41.9-8.9-42.2,6.2
			c-0.4,17.5,0.8,53.8,1,58.6c0.3,6.6,0.4,13.5,1.5,24.3c1.1,10.6,4.3,35.7,4.3,35.7c2.9,1.6,6.4,1.6,9.4,0c0,0,3.6-30.1,3.5-37.7
			c-0.1-5.5-0.6-11.1-1.6-16.5l3.3-34.1c0,0,1.3,10.5,1.6,17.2c0.3,6.6,1.3,10.7,2.9,23c1.4,10.7,5,33.3,5,33.3
			c2.8,1.6,6.2,1.4,8.9-0.4C2435.8,1250.8,2439.2,1222.8,2438.1,1213.5z"/>
		<path class="st15" d="M2438.1,1213.5c-1.1-9.3-1.9-14.6-1.9-14.6s0.2-12.9,1-25c0.8-13,0.6-29.4,1-32.7c0,0-41.9-8.9-42.2,6.2
			c-0.4,17.5,0.8,53.8,1,58.6c0.3,6.6,0.4,13.5,1.5,24.3c1.1,10.6,4.3,35.7,4.3,35.7c2.9,1.6,6.4,1.6,9.4,0c0,0,3.6-30.1,3.5-37.7
			c-0.1-5.5-0.6-11.1-1.6-16.5l3.3-34.1c0,0,1.3,10.5,1.6,17.2c0.3,6.6,1.3,10.7,2.9,23c1.4,10.7,5,33.3,5,33.3
			c2.8,1.6,6.2,1.4,8.9-0.4C2435.8,1250.8,2439.2,1222.8,2438.1,1213.5z"/>
		<path class="st36" d="M2433.2,1161.9c0,0-2.9,4.8-11.7,8.3l-2.5,8.2l-0.3,14.4c-0.3-4.7-0.9-9.7-1.5-15.1l1-8.5
			C2418.3,1169.2,2428,1166.3,2433.2,1161.9z"/>
		<path class="st26" d="M2439.7,1096c-1.7-6-5.6-8.6-10-8.9c-1.1-0.1-3.4,0-3.4,0c0.3,2.5-7.5,4.3-13.5,2.9
			c-1.8,0.5-4.8,1.2-6.4,1.7c-4.4,1.5-9.6,6.9-10.3,21.1c0,0-0.7,30.6-0.5,39.5c10.8,4.5,21.2,5.1,27.5,3.9
			c13.1-2.5,15.2-8.2,15.2-8.2s-0.1-7.7-0.6-20.2C2439.9,1110.3,2440.4,1098.6,2439.7,1096z"/>
		<path class="st33" d="M2388.7,1146.7c2.3,1.5,3.8,4,3.8,6.8c0.2,2.8,0.2,5.8,1.5,8.3c0.2,0.4,1.4,1.4,1.8,1.2v-3.6
			c0.7-0.9,2.7-2.6,3.2-3.7c0.9-1.8-0.1-3.9,0.4-5.8c0.3-0.7,0.6-1.5,0.7-2.3c0.1-2-0.7-4-2.2-5.4c-1.9-1.6-3.6-3.5-5.4-5.2
			c-2.2-2.3-5.4-5.6-7.6-7.8l15.1-14.4c1.7-1.7,3.2-3.6,4.3-5.7c2.5-4.7,5.8-13,2.1-17.4c-5.4,0-8.4,0.8-13.9,7.2
			c-4.7,5.5-19.8,23.6-21.8,26.7c-1.9,3.1-3.1,5.2,0.7,8.6c3,2.6,6.2,5,9.5,7.3C2383.4,1143.2,2386.2,1144.9,2388.7,1146.7z"/>
		<path class="st35" d="M2384.9,1129.3c-1.4,1.3-2.9,2.4-4.6,3.2c2-0.3,3.9-1,5.7-2.1L2384.9,1129.3z"/>
		<path class="st34" d="M2408,1091.2c-2.2-0.1-4.4,0.1-6.5,0.5c-3.3,0.7-5.5,2.4-11.1,8.8c-5.6,6.4-9.6,11.6-9.6,11.6
			s-1.6,3.6,2.9,7.7c4.5,4.1,8.6,3.4,8.6,3.4l12.7-12.3C2405,1110.8,2414.1,1101.3,2408,1091.2z"/>
	</g>
</g>
<g class="st25">
	<g>
		<defs>
			<rect id="SVGID_4_" x="2361.3" y="1487.5" width="243.8" height="243.8"/>
		</defs>
		<clipPath id="SVGID_5_">
			<use xlink:href="#SVGID_4_"  style="overflow:visible;"/>
		</clipPath>
		<line class="st37" x1="2200.9" y1="1680.1" x2="2586.4" y2="1294.7"/>
	</g>
	<g>
		<defs>
			<rect id="SVGID_6_" x="2361.3" y="1487.5" width="243.8" height="243.8"/>
		</defs>
		<clipPath id="SVGID_7_">
			<use xlink:href="#SVGID_6_"  style="overflow:visible;"/>
		</clipPath>
		<line class="st38" x1="2216.1" y1="1695.2" x2="2601.5" y2="1309.8"/>
	</g>
	<g>
		<defs>
			<rect id="SVGID_8_" x="2361.3" y="1487.5" width="243.8" height="243.8"/>
		</defs>
		<clipPath id="SVGID_9_">
			<use xlink:href="#SVGID_8_"  style="overflow:visible;"/>
		</clipPath>
		<line class="st39" x1="2231.2" y1="1710.3" x2="2616.6" y2="1324.9"/>
	</g>
	<g>
		<defs>
			<rect id="SVGID_10_" x="2361.3" y="1487.5" width="243.8" height="243.8"/>
		</defs>
		<clipPath id="SVGID_11_">
			<use xlink:href="#SVGID_10_"  style="overflow:visible;"/>
		</clipPath>
		<line class="st40" x1="2246.3" y1="1725.4" x2="2631.7" y2="1340"/>
	</g>
	<g>
		<defs>
			<rect id="SVGID_12_" x="2361.3" y="1487.5" width="243.8" height="243.8"/>
		</defs>
		<clipPath id="SVGID_13_">
			<use xlink:href="#SVGID_12_"  style="overflow:visible;"/>
		</clipPath>
		<line class="st41" x1="2261.4" y1="1740.6" x2="2646.8" y2="1355.1"/>
	</g>
	<g>
		<defs>
			<rect id="SVGID_14_" x="2361.3" y="1487.5" width="243.8" height="243.8"/>
		</defs>
		<clipPath id="SVGID_15_">
			<use xlink:href="#SVGID_14_"  style="overflow:visible;"/>
		</clipPath>
		<line class="st42" x1="2276.5" y1="1755.7" x2="2661.9" y2="1370.2"/>
	</g>
	<g>
		<defs>
			<rect id="SVGID_16_" x="2361.3" y="1487.5" width="243.8" height="243.8"/>
		</defs>
		<clipPath id="SVGID_17_">
			<use xlink:href="#SVGID_16_"  style="overflow:visible;"/>
		</clipPath>
		<line class="st43" x1="2291.6" y1="1770.8" x2="2677.1" y2="1385.3"/>
	</g>
	<g>
		<defs>
			<rect id="SVGID_18_" x="2361.3" y="1487.5" width="243.8" height="243.8"/>
		</defs>
		<clipPath id="SVGID_19_">
			<use xlink:href="#SVGID_18_"  style="overflow:visible;"/>
		</clipPath>
		<line class="st44" x1="2306.7" y1="1785.9" x2="2692.2" y2="1400.4"/>
	</g>
	<g>
		<defs>
			<rect id="SVGID_20_" x="2361.3" y="1487.5" width="243.8" height="243.8"/>
		</defs>
		<clipPath id="SVGID_21_">
			<use xlink:href="#SVGID_20_"  style="overflow:visible;"/>
		</clipPath>
		<line class="st45" x1="2321.8" y1="1801" x2="2707.3" y2="1415.5"/>
	</g>
	<g>
		<defs>
			<rect id="SVGID_22_" x="2361.3" y="1487.5" width="243.8" height="243.8"/>
		</defs>
		<clipPath id="SVGID_23_">
			<use xlink:href="#SVGID_22_"  style="overflow:visible;"/>
		</clipPath>
		<line class="st46" x1="2336.9" y1="1816.1" x2="2722.4" y2="1430.7"/>
	</g>
	<g>
		<defs>
			<rect id="SVGID_24_" x="2361.3" y="1487.5" width="243.8" height="243.8"/>
		</defs>
		<clipPath id="SVGID_25_">
			<use xlink:href="#SVGID_24_"  style="overflow:visible;"/>
		</clipPath>
		<line class="st47" x1="2352.1" y1="1831.2" x2="2737.5" y2="1445.8"/>
	</g>
	<g>
		<defs>
			<rect id="SVGID_26_" x="2361.3" y="1487.5" width="243.8" height="243.8"/>
		</defs>
		<clipPath id="SVGID_27_">
			<use xlink:href="#SVGID_26_"  style="overflow:visible;"/>
		</clipPath>
		<line class="st48" x1="2367.2" y1="1846.3" x2="2752.6" y2="1460.9"/>
	</g>
	<g>
		<defs>
			<rect id="SVGID_28_" x="2361.3" y="1487.5" width="243.8" height="243.8"/>
		</defs>
		<clipPath id="SVGID_29_">
			<use xlink:href="#SVGID_28_"  style="overflow:visible;"/>
		</clipPath>
		<line class="st49" x1="2382.3" y1="1861.4" x2="2767.7" y2="1476"/>
	</g>
	<g>
		<defs>
			<rect id="SVGID_30_" x="2361.3" y="1487.5" width="243.8" height="243.8"/>
		</defs>
		<clipPath id="SVGID_31_">
			<use xlink:href="#SVGID_30_"  style="overflow:visible;"/>
		</clipPath>
		<line class="st50" x1="2397.4" y1="1876.6" x2="2782.8" y2="1491.1"/>
	</g>
	<g>
		<defs>
			<rect id="SVGID_32_" x="2361.3" y="1487.5" width="243.8" height="243.8"/>
		</defs>
		<clipPath id="SVGID_33_">
			<use xlink:href="#SVGID_32_"  style="overflow:visible;"/>
		</clipPath>
		<line class="st51" x1="2412.5" y1="1891.7" x2="2798" y2="1506.2"/>
	</g>
</g>
<g class="st52">
	<path class="st53" d="M2197.1,534.3h-6c0.2,4.3,0.4,8.6,0.4,13c0,130.6-106.2,236.8-236.8,236.8s-236.8-106.2-236.8-236.8
		c0-4.4,0.1-8.7,0.4-13h-6c-0.2,4.3-0.4,8.6-0.4,13c0,133.9,108.9,242.8,242.8,242.8s242.8-108.9,242.8-242.8
		C2197.5,543,2197.4,538.6,2197.1,534.3z"/>
</g>
<g class="st52">
	<path class="st53" d="M2177.1,534.3h-6c0.3,4.3,0.4,8.6,0.4,13c0,119.6-97.3,216.8-216.8,216.8c-119.6,0-216.8-97.3-216.8-216.8
		c0-4.4,0.1-8.7,0.4-13h-6c-0.3,4.3-0.4,8.6-0.4,13c0,122.9,100,222.8,222.8,222.8s222.8-100,222.8-222.8
		C2177.5,543,2177.4,538.6,2177.1,534.3z"/>
</g>
<path class="st54" d="M2167.1,534.3h-6c0.3,4.3,0.4,8.6,0.4,13c0,114-92.8,206.8-206.8,206.8c-114,0-206.8-92.8-206.8-206.8
	c0-4.4,0.1-8.7,0.4-13h-6c-0.3,4.3-0.4,8.6-0.4,13c0,117.3,95.5,212.8,212.8,212.8c117.3,0,212.8-95.5,212.8-212.8
	C2167.5,543,2167.4,538.6,2167.1,534.3z"/>
</svg>
